<svg xmlns="http://www.w3.org/2000/svg" version="1.1" xmlns:xlink="http://www.w3.org/1999/xlink" xmlns:svgjs="http://svgjs.dev/svgjs" width="1500" height="1500" viewBox="0 0 1500 1500"><rect width="1500" height="1500" fill="#ffffff"></rect><g transform="matrix(0.6666666666666666,0,0,0.6666666666666666,249.39393939393938,665.4955114660808)"><svg viewBox="0 0 396 67" data-background-color="#ffffff" preserveAspectRatio="xMidYMid meet" height="253" width="1500" xmlns="http://www.w3.org/2000/svg" xmlns:xlink="http://www.w3.org/1999/xlink"><g id="tight-bounds" transform="matrix(1,0,0,1,0.2400000000000091,0.06798852829601287)"><svg viewBox="0 0 395.52 66.86371182410025" height="66.86371182410025" width="395.52"><g><svg viewBox="0 0 508.2948435329031 85.92860017106634" height="66.86371182410025" width="395.52"><g transform="matrix(1,0,0,1,112.77484353290313,14.534638279762149)"><svg viewBox="0 0 395.52 56.85932361154204" height="56.85932361154204" width="395.52"><g id="textblocktransform"><svg viewBox="0 0 395.52 56.85932361154204" height="56.85932361154204" width="395.52" id="textblock"><g><svg viewBox="0 0 395.52 56.85932361154204" height="56.85932361154204" width="395.52"><g transform="matrix(1,0,0,1,0,0)"><svg width="395.52" viewBox="0 -33.45 236.04 33.940000000000005" height="56.85932361154204" data-palette-color="#000000"><path d="M29.98 0L25.24 0 21.88-9.33 8.13-9.33 4.79 0 0 0 12.45-32.93 17.75-32.93 29.98 0ZM16.46-25.17L15.04-29.42 14.75-28.47 13.06-23.29 9.38-12.96 20.68-12.96 16.46-25.17ZM57.54-9.03L57.54-9.03Q57.54-4.54 54.26-2.03 50.97 0.49 44.89 0.49L44.89 0.49Q33.74 0.49 31.93-8.25L31.93-8.25 36.45-9.16Q37.13-6.01 39.28-4.58 41.43-3.15 45.02-3.15L45.02-3.15Q48.9-3.15 50.91-4.66 52.93-6.18 52.93-8.96L52.93-8.96Q52.93-10.67 52.13-11.74 51.34-12.82 50.05-13.5 48.75-14.18 47.13-14.61 45.51-15.04 43.85-15.45L43.85-15.45Q39.91-16.48 38.24-17.29 36.57-18.09 35.57-19.13 34.57-20.17 34.06-21.51 33.54-22.85 33.54-24.66L33.54-24.66Q33.54-28.88 36.51-31.16 39.48-33.45 45.02-33.45L45.02-33.45Q50.19-33.45 52.93-31.64 55.66-29.83 56.74-25.54L56.74-25.54 52.15-24.73Q51.56-27.47 49.8-28.7 48.04-29.93 44.99-29.93L44.99-29.93Q38.08-29.93 38.08-24.73L38.08-24.73Q38.08-23.27 38.73-22.35 39.38-21.44 40.49-20.84 41.6-20.24 43.08-19.85 44.55-19.46 46.24-19.02L46.24-19.02Q49.63-18.16 51.12-17.59 52.61-17.02 53.77-16.28 54.93-15.55 55.76-14.55 56.59-13.55 57.07-12.21 57.54-10.86 57.54-9.03ZM86.03 0L81.37 0 81.37-15.21 68.62-15.21 68.62 0 63.96 0 63.96-32.93 68.62-32.93 68.62-19.12 81.37-19.12 81.37-32.93 86.03-32.93 86.03 0ZM116.5-32.93L116.5-11.96Q116.5-5.44 113.71-2.48 110.93 0.49 104.78 0.49L104.78 0.49Q98.82 0.49 96.15-2.38 93.47-5.25 93.47-11.52L93.47-11.52 93.47-32.93 98.14-32.93 98.14-12.16Q98.14-7.18 99.57-5.24 100.99-3.3 104.75-3.3L104.75-3.3Q108.68-3.3 110.27-5.3 111.86-7.3 111.86-12.48L111.86-12.48 111.86-32.93 116.5-32.93ZM148.13-29.13L137.32-29.13 137.32 0 132.68 0 132.68-29.13 121.87-29.13 121.87-32.93 148.13-32.93 148.13-29.13ZM177.5-16.63L177.5-16.63Q177.5-8.4 174.27-3.96 171.03 0.49 164.98 0.49L164.98 0.49Q158.9 0.49 155.7-3.88 152.5-8.25 152.5-16.63L152.5-16.63Q152.5-24.85 155.68-29.15 158.85-33.45 165.03-33.45L165.03-33.45Q171.06-33.45 174.28-29.21 177.5-24.98 177.5-16.63ZM172.59-16.63L172.59-16.63Q172.59-29.64 165.03-29.64L165.03-29.64Q157.41-29.64 157.41-16.63L157.41-16.63Q157.41-10.03 159.34-6.67 161.27-3.3 165-3.3L165-3.3Q168.98-3.3 170.79-6.71 172.59-10.13 172.59-16.63ZM207.55-9.03L207.55-9.03Q207.55-4.54 204.27-2.03 200.99 0.49 194.91 0.49L194.91 0.49Q183.75 0.49 181.94-8.25L181.94-8.25 186.46-9.16Q187.14-6.01 189.29-4.58 191.44-3.15 195.03-3.15L195.03-3.15Q198.91-3.15 200.92-4.66 202.94-6.18 202.94-8.96L202.94-8.96Q202.94-10.67 202.15-11.74 201.35-12.82 200.06-13.5 198.76-14.18 197.14-14.61 195.52-15.04 193.86-15.45L193.86-15.45Q189.93-16.48 188.25-17.29 186.58-18.09 185.58-19.13 184.58-20.17 184.07-21.51 183.55-22.85 183.55-24.66L183.55-24.66Q183.55-28.88 186.52-31.16 189.49-33.45 195.03-33.45L195.03-33.45Q200.2-33.45 202.94-31.64 205.67-29.83 206.75-25.54L206.75-25.54 202.16-24.73Q201.57-27.47 199.81-28.7 198.06-29.93 195-29.93L195-29.93Q188.1-29.93 188.1-24.73L188.1-24.73Q188.1-23.27 188.74-22.35 189.39-21.44 190.5-20.84 191.61-20.24 193.09-19.85 194.57-19.46 196.25-19.02L196.25-19.02Q199.64-18.16 201.13-17.59 202.62-17.02 203.78-16.28 204.94-15.55 205.77-14.55 206.6-13.55 207.08-12.21 207.55-10.86 207.55-9.03ZM236.04 0L231.38 0 231.38-15.21 218.63-15.21 218.63 0 213.97 0 213.97-32.93 218.63-32.93 218.63-19.12 231.38-19.12 231.38-32.93 236.04-32.93 236.04 0Z" opacity="1" transform="matrix(1,0,0,1,0,0)" fill="#000000" class="wordmark-text-0" data-fill-palette-color="primary" id="text-0"></path></svg></g></svg></g></svg></g></svg></g><g><svg viewBox="0 0 85.92860017106634 85.92860017106634" height="85.92860017106634" width="85.92860017106634"><g><svg></svg></g><g id="icon-0"><svg viewBox="0 0 85.92860017106634 85.92860017106634" height="85.92860017106634" width="85.92860017106634"><g><path d="M0 42.964c0-23.729 19.236-42.964 42.964-42.964 23.729 0 42.964 19.236 42.965 42.964 0 23.729-19.236 42.964-42.965 42.965-23.729 0-42.964-19.236-42.964-42.965zM42.964 80.801c20.897 0 37.837-16.94 37.837-37.837 0-20.897-16.94-37.837-37.837-37.836-20.897 0-37.837 16.94-37.836 37.836 0 20.897 16.94 37.837 37.836 37.837z" data-fill-palette-color="tertiary" fill="#000000" stroke="transparent"></path></g><g transform="matrix(1,0,0,1,30.700727909160193,21.82700569184801)"><svg viewBox="0 0 24.527144352745953 42.27458878737031" height="42.27458878737031" width="24.527144352745953"><g><svg xmlns="http://www.w3.org/2000/svg" xmlns:xlink="http://www.w3.org/1999/xlink" version="1.1" x="0" y="0" viewBox="21.679106830508616 1 56.85827385947762 98" enable-background="new 0 0 100 100" xml:space="preserve" height="42.27458878737031" width="24.527144352745953" class="icon-dxe-0" data-fill-palette-color="accent" id="dxe-0"><g fill="#261f20" data-fill-palette-color="accent"><path fill-rule="evenodd" clip-rule="evenodd" d="M30.545 28.822C29.38 36.039 30.875 43.672 37.045 47.863 30.758 19.81 45.756 8.664 59.646 1 43.466 24.046 76.542 24.644 78.423 51.13 80.028 73.71 64.507 91.317 46.639 99 46.845 76.175 24.089 73.067 21.801 54.397 20.905 47.094 25.062 33.766 30.545 28.822" fill="#000000" data-fill-palette-color="accent"></path></g></svg></g></svg></g></svg></g></svg></g></svg></g><defs></defs></svg><rect width="395.52" height="66.86371182410025" fill="none" stroke="none" visibility="hidden"></rect></g></svg></g></svg>